<svg width="355" height="183" viewBox="0 0 355 183" fill="none" xmlns="http://www.w3.org/2000/svg">
<path d="M92.8 85C106.883 85 118.3 73.5833 118.3 59.5C118.3 45.4167 106.883 34 92.8 34C78.7168 34 67.3 45.4167 67.3 59.5C67.3 73.5833 78.7168 85 92.8 85Z" fill="#BF2E6C"/>
<path d="M179.86 67C193.943 67 205.36 55.5833 205.36 41.5C205.36 27.4167 193.943 16 179.86 16C165.777 16 154.36 27.4167 154.36 41.5C154.36 55.5833 165.777 67 179.86 67Z" fill="#2D408F"/>
<path d="M329 136C343.083 136 354.5 124.583 354.5 110.5C354.5 96.4167 343.083 85 329 85C314.917 85 303.5 96.4167 303.5 110.5C303.5 124.583 314.917 136 329 136Z" fill="#523B8B"/>
<path d="M258.78 85C272.863 85 284.28 73.5833 284.28 59.5C284.28 45.4167 272.863 34 258.78 34C244.697 34 233.28 45.4167 233.28 59.5C233.28 73.5833 244.697 85 258.78 85Z" fill="#0B1947"/>
<path d="M26.14 136C40.2233 136 51.64 124.583 51.64 110.5C51.64 96.4167 40.2233 85 26.14 85C12.0568 85 0.640015 96.4167 0.640015 110.5C0.640015 124.583 12.0568 136 26.14 136Z" fill="#48A3A1"/>
<path d="M124.94 26C131.982 26 137.69 20.2916 137.69 13.25C137.69 6.20837 131.982 0.5 124.94 0.5C117.898 0.5 112.19 6.20837 112.19 13.25C112.19 20.2916 117.898 26 124.94 26Z" fill="#A8A7AC"/>
<path d="M230.21 26C237.252 26 242.96 20.2916 242.96 13.25C242.96 6.20837 237.252 0.5 230.21 0.5C223.168 0.5 217.46 6.20837 217.46 13.25C217.46 20.2916 223.168 26 230.21 26Z" fill="#A8A7AC"/>
<path d="M316.25 70.26C323.292 70.26 329 64.5516 329 57.51C329 50.4684 323.292 44.76 316.25 44.76C309.208 44.76 303.5 50.4684 303.5 57.51C303.5 64.5516 309.208 70.26 316.25 70.26Z" fill="#A8A7AC"/>
<path d="M37.76 64.13C44.8016 64.13 50.51 58.4216 50.51 51.38C50.51 44.3384 44.8016 38.63 37.76 38.63C30.7184 38.63 25.01 44.3384 25.01 51.38C25.01 58.4216 30.7184 64.13 37.76 64.13Z" fill="#A8A7AC"/>
<path d="M38.38 172.12L52.35 151.77V155.72L39.15 136.24H44.62L55.08 151.57L52.92 151.62L63.34 136.24H68.57L55.47 155.41V151.72L69.44 172.12H63.92L52.78 155.77H54.89L43.9 172.12H38.38Z" fill="#211915"/>
<path d="M88.93 172.53C86.37 172.53 84.0101 172.08 81.8501 171.17C79.6901 170.26 77.82 168.98 76.23 167.32C74.65 165.66 73.41 163.72 72.51 161.5C71.61 159.28 71.17 156.83 71.17 154.17C71.17 151.51 71.62 149.06 72.51 146.84C73.41 144.62 74.65 142.68 76.25 141.02C77.85 139.36 79.73 138.08 81.89 137.17C84.05 136.26 86.41 135.81 88.97 135.81C91.53 135.81 93.95 136.28 96.15 137.22C98.34 138.16 100.21 139.55 101.74 141.4L98.62 144.63C97.34 143.19 95.9 142.13 94.3 141.43C92.7 140.73 90.99 140.38 89.16 140.38C87.33 140.38 85.52 140.72 83.9 141.41C82.28 142.09 80.88 143.05 79.7 144.28C78.52 145.51 77.6 146.97 76.94 148.66C76.28 150.35 75.9601 152.19 75.9601 154.17C75.9601 156.15 76.29 157.99 76.94 159.68C77.6 161.37 78.52 162.83 79.7 164.06C80.88 165.29 82.28 166.25 83.9 166.93C85.52 167.61 87.27 167.96 89.16 167.96C91.05 167.96 92.7 167.61 94.3 166.91C95.9 166.21 97.34 165.12 98.62 163.65L101.74 166.88C100.2 168.73 98.34 170.13 96.15 171.08C93.96 172.04 91.55 172.52 88.93 172.52V172.53Z" fill="#211915"/>
<path d="M107.46 172.12V134.08H112.07V152.28L111.16 150.33C111.99 148.55 113.27 147.17 115 146.18C116.73 145.19 118.74 144.69 121.05 144.69C123.13 144.69 124.96 145.12 126.55 145.97C128.13 146.82 129.37 148.12 130.27 149.87C131.17 151.61 131.61 153.82 131.61 156.48V172.12H127V157.05C127 154.42 126.4 152.44 125.2 151.1C124 149.76 122.31 149.1 120.14 149.1C118.51 149.1 117.08 149.44 115.87 150.13C114.65 150.81 113.72 151.82 113.06 153.15C112.4 154.48 112.08 156.14 112.08 158.12V172.12H107.47H107.46Z" fill="#211915"/>
<path d="M147.58 172.42C145.69 172.42 144.04 172.08 142.61 171.39C141.19 170.71 140.09 169.76 139.32 168.54C138.55 167.33 138.17 165.95 138.17 164.41C138.17 162.87 138.5 161.61 139.15 160.41C139.81 159.21 140.88 158.26 142.37 157.54C143.86 156.82 145.87 156.46 148.39 156.46H156.45V160H148.58C146.28 160 144.72 160.41 143.92 161.23C143.12 162.05 142.72 163.04 142.72 164.2C142.72 165.53 143.22 166.6 144.21 167.4C145.2 168.2 146.58 168.6 148.34 168.6C150.1 168.6 151.58 168.19 152.88 167.37C154.18 166.55 155.11 165.35 155.69 163.78L156.6 167.16C155.99 168.77 154.92 170.04 153.38 170.98C151.84 171.92 149.91 172.39 147.57 172.39L147.58 172.42ZM155.94 172.12V166.38L155.7 165.3V155.51C155.7 153.43 155.13 151.81 154 150.67C152.86 149.53 151.16 148.95 148.89 148.95C147.39 148.95 145.91 149.22 144.47 149.74C143.03 150.27 141.81 150.98 140.82 151.87L138.9 148.18C140.21 147.05 141.79 146.19 143.63 145.59C145.47 144.99 147.4 144.69 149.41 144.69C152.9 144.69 155.59 145.6 157.47 147.41C159.36 149.22 160.3 151.99 160.3 155.72V172.13H155.93L155.94 172.12Z" fill="#211915"/>
<path d="M168.85 172.12V134.08H173.46V172.12H168.85Z" fill="#211915"/>
<path d="M182.24 172.12V134.08H186.85V172.12H182.24Z" fill="#211915"/>
<path d="M206.96 172.42C204.24 172.42 201.85 171.82 199.78 170.63C197.72 169.43 196.12 167.79 194.98 165.71C193.84 163.63 193.28 161.23 193.28 158.53C193.28 155.83 193.83 153.44 194.94 151.35C196.04 149.27 197.56 147.63 199.5 146.45C201.44 145.27 203.62 144.68 206.05 144.68C208.48 144.68 210.69 145.26 212.58 146.42C214.47 147.58 215.95 149.21 217.02 151.32C218.09 153.42 218.63 155.87 218.63 158.68C218.63 158.89 218.63 159.12 218.61 159.4C218.59 159.67 218.57 159.93 218.54 160.17H196.89V156.63H216.14L214.27 157.86C214.3 156.12 213.97 154.56 213.26 153.19C212.55 151.82 211.59 150.75 210.36 149.99C209.13 149.22 207.7 148.84 206.06 148.84C204.42 148.84 203.04 149.22 201.79 149.99C200.54 150.76 199.57 151.84 198.86 153.22C198.16 154.6 197.8 156.19 197.8 157.96V158.78C197.8 160.59 198.19 162.21 198.98 163.62C199.76 165.04 200.86 166.14 202.27 166.93C203.68 167.72 205.29 168.11 207.12 168.11C208.62 168.11 209.99 167.84 211.22 167.29C212.45 166.74 213.53 165.92 214.46 164.83L217 168.01C215.85 169.45 214.42 170.54 212.7 171.29C210.99 172.04 209.08 172.42 206.96 172.42Z" fill="#211915"/>
<path d="M225.01 172.12V144.95H229.43V152.28L228.71 150.33C229.54 148.55 230.82 147.17 232.55 146.18C234.28 145.19 236.29 144.69 238.6 144.69C240.68 144.69 242.51 145.12 244.1 145.97C245.68 146.82 246.92 148.12 247.82 149.87C248.72 151.61 249.16 153.82 249.16 156.48V172.12H244.55V157.05C244.55 154.42 243.95 152.44 242.75 151.1C241.55 149.77 239.86 149.1 237.69 149.1C236.06 149.1 234.63 149.44 233.42 150.13C232.2 150.81 231.27 151.82 230.61 153.15C229.95 154.48 229.63 156.14 229.63 158.12V172.12H225.02H225.01Z" fill="#211915"/>
<path d="M268.25 170.99C265.79 170.99 263.59 170.43 261.65 169.32C259.71 168.21 258.18 166.66 257.04 164.68C255.9 162.7 255.34 160.41 255.34 157.81C255.34 155.21 255.91 152.88 257.04 150.91C258.18 148.95 259.71 147.42 261.65 146.32C263.59 145.23 265.79 144.68 268.25 144.68C270.43 144.68 272.41 145.15 274.2 146.09C275.99 147.03 277.42 148.47 278.5 150.42C279.58 152.37 280.11 154.83 280.11 157.8C280.11 160.77 279.57 163.18 278.5 165.13C277.43 167.08 276 168.54 274.2 169.51C272.4 170.48 270.42 170.97 268.25 170.97V170.99ZM268.83 182.37C266.49 182.37 264.23 182.02 262.04 181.32C259.85 180.62 258.06 179.62 256.69 178.32L258.9 174.53C260.08 175.62 261.54 176.49 263.27 177.12C265 177.75 266.81 178.07 268.69 178.07C271.7 178.07 273.9 177.32 275.31 175.81C276.72 174.31 277.42 172.02 277.42 168.94V163.2L277.9 157.82L277.66 152.39V144.96H282.03V168.44C282.03 173.23 280.91 176.75 278.67 179C276.43 181.25 273.15 182.38 268.83 182.38V182.37ZM268.78 166.68C270.48 166.68 271.98 166.3 273.29 165.55C274.6 164.8 275.63 163.76 276.39 162.42C277.14 161.09 277.52 159.55 277.52 157.81C277.52 156.07 277.14 154.53 276.39 153.2C275.64 151.87 274.6 150.83 273.29 150.1C271.98 149.37 270.47 149 268.78 149C267.09 149 265.57 149.37 264.24 150.1C262.91 150.84 261.87 151.87 261.12 153.2C260.37 154.53 259.99 156.07 259.99 157.81C259.99 159.55 260.37 161.09 261.12 162.42C261.87 163.75 262.91 164.8 264.24 165.55C265.57 166.3 267.08 166.68 268.78 166.68Z" fill="#211915"/>
<path d="M302.14 172.42C299.42 172.42 297.03 171.82 294.96 170.63C292.9 169.43 291.3 167.79 290.16 165.71C289.02 163.63 288.46 161.23 288.46 158.53C288.46 155.83 289.01 153.44 290.12 151.35C291.22 149.27 292.74 147.63 294.68 146.45C296.62 145.27 298.8 144.68 301.23 144.68C303.66 144.68 305.87 145.26 307.76 146.42C309.65 147.58 311.13 149.21 312.2 151.32C313.27 153.42 313.81 155.87 313.81 158.68C313.81 158.89 313.81 159.12 313.79 159.4C313.77 159.67 313.75 159.93 313.72 160.17H292.07V156.63H311.32L309.45 157.86C309.48 156.12 309.15 154.56 308.44 153.19C307.73 151.82 306.77 150.75 305.54 149.99C304.31 149.22 302.88 148.84 301.24 148.84C299.6 148.84 298.22 149.22 296.97 149.99C295.72 150.76 294.75 151.84 294.04 153.22C293.34 154.6 292.98 156.19 292.98 157.96V158.78C292.98 160.59 293.37 162.21 294.16 163.62C294.94 165.04 296.04 166.14 297.45 166.93C298.86 167.72 300.47 168.11 302.3 168.11C303.8 168.11 305.17 167.84 306.4 167.29C307.63 166.74 308.71 165.92 309.64 164.83L312.18 168.01C311.03 169.45 309.6 170.54 307.88 171.29C306.17 172.04 304.26 172.42 302.14 172.42Z" fill="#211915"/>
</svg>
